<svg xmlns="http://www.w3.org/2000/svg" viewBox="2 8 60 46"><g data-name="Stroke copy 3"><path d="M7 9v8h34v26a10 10 0 0 0 20 0V9Z" fill="#799ebd" class="fill-79bd9a"/><path d="M14 14v3h27v22h5v5a5 5 0 0 0 10 0V14Z" fill="#a7bddb" class="fill-a8dba8"/><path d="M41 26v17a10 10 0 0 0 2 6h4a4 4 0 0 0 4-4V26Z" fill="#799ebd" class="fill-79bd9a"/><path d="M41 21v22a10 10 0 0 0 2 6h8a5 5 0 0 1-5-5V21Z" fill="#9cd4f0" class="fill-cff09e"/><path d="M43 49H22A15 15 0 0 1 7 34V17H3v28a8 8 0 0 0 8 8h40a10 10 0 0 1-8-4Z" fill="#9cd4f0" class="fill-cff09e"/><path d="M8 35h14v12H8z" fill="#a7bddb" class="fill-a8dba8"/></g><g data-name="Stroke Close copy 3"><path d="M8 29v-3.76l2.11 4.21A1 1 0 0 0 11 30a.91.91 0 0 0 .23 0 1 1 0 0 0 .77-1v-8a1 1 0 0 0-2 0v3.76l-2.11-4.21A1 1 0 0 0 6.77 20 1 1 0 0 0 6 21v8a1 1 0 0 0 2 0ZM15 30h4a1 1 0 0 0 0-2h-3v-2h3a1 1 0 0 0 0-2h-3v-2h3a1 1 0 0 0 0-2h-4a1 1 0 0 0-1 1v8a1 1 0 0 0 1 1ZM28.06 29.35A1 1 0 0 0 29 30h.18a1 1 0 0 0 .82-1v-8a1 1 0 0 0-2 0v2.49l-1.06-2.84a1 1 0 0 0-1.88 0L24 23.49V21a1 1 0 0 0-2 0v8a1 1 0 0 0 1.94.35l2.06-5.5ZM35 22a1 1 0 0 1 1 1 1 1 0 0 0 2 0 3 3 0 1 0-3 3 1 1 0 1 1-1 1 1 1 0 0 0-2 0 3 3 0 1 0 3-3 1 1 0 0 1 0-2ZM22 34H8a1 1 0 0 0-1 1v12a1 1 0 0 0 1 1h14a1 1 0 0 0 1-1V35a1 1 0 0 0-1-1Zm-1 12H9V36h12ZM37 34h-6a1 1 0 0 0 0 2h6a1 1 0 0 0 0-2ZM37 38H27a1 1 0 0 0 0 2h10a1 1 0 0 0 0-2ZM37 42H27a1 1 0 0 0 0 2h10a1 1 0 0 0 0-2ZM32 46h-5a1 1 0 0 0 0 2h5a1 1 0 0 0 0-2Z" fill="#3a6185" class="fill-3b8686"/><path d="M61 8H7a1 1 0 0 0-1 1v7H3a1 1 0 0 0-1 1v28a9 9 0 0 0 9 9h40a11 11 0 0 0 11-11V9a1 1 0 0 0-1-1ZM11 52a7 7 0 0 1-7-7V18h36v25a11 11 0 0 0 4.7 9Zm36-25h3v19.86A4 4 0 0 1 47 43Zm4-2h-4v-4a1 1 0 0 0-1-1h-4v-3a1 1 0 0 0-1-1H15v-2h40v29a4 4 0 0 1-3 3.86V26a1 1 0 0 0-1-1Zm9 18a9 9 0 0 1-18 0V22h3v21a6 6 0 0 0 12 0V13a1 1 0 0 0-1-1H14a1 1 0 0 0-1 1v3H8v-6h52Z" fill="#3a6185" class="fill-3b8686"/></g></svg>